<svg width="20" height="18" viewBox="0 0 20 18" fill="none" xmlns="http://www.w3.org/2000/svg">
<path d="M13.2867 15.2016L12.7747 11.1024C12.7021 10.5218 12.42 9.98766 11.9812 9.6005C11.5425 9.21333 10.9774 8.99978 10.3923 9H8.62909C8.04423 9.00017 7.47956 9.21389 7.04116 9.60102C6.60276 9.98816 6.32082 10.5221 6.24829 11.1024L5.73549 15.2016C5.70735 15.4268 5.72744 15.6554 5.79444 15.8723C5.86143 16.0891 5.97379 16.2892 6.12406 16.4593C6.27433 16.6294 6.45906 16.7656 6.666 16.8588C6.87293 16.952 7.09733 17.0002 7.32429 17H11.6987C11.9256 17 12.1499 16.9518 12.3567 16.8586C12.5636 16.7653 12.7482 16.6291 12.8984 16.459C13.0486 16.289 13.1609 16.0889 13.2278 15.8721C13.2948 15.6553 13.3148 15.4267 13.2867 15.2016V15.2016Z" stroke="black" stroke-width="2" stroke-linecap="round" stroke-linejoin="round"/>
<path d="M9.51133 5.8C10.8368 5.8 11.9113 4.72548 11.9113 3.4C11.9113 2.07452 10.8368 1 9.51133 1C8.18584 1 7.11133 2.07452 7.11133 3.4C7.11133 4.72548 8.18584 5.8 9.51133 5.8Z" stroke="black" stroke-width="2"/>
<path d="M3.11123 8.2C3.99489 8.2 4.71123 7.48366 4.71123 6.6C4.71123 5.71634 3.99489 5 3.11123 5C2.22757 5 1.51123 5.71634 1.51123 6.6C1.51123 7.48366 2.22757 8.2 3.11123 8.2Z" stroke="black" stroke-width="2"/>
<path d="M15.9115 8.2C16.7952 8.2 17.5115 7.48366 17.5115 6.6C17.5115 5.71634 16.7952 5 15.9115 5C15.0279 5 14.3115 5.71634 14.3115 6.6C14.3115 7.48366 15.0279 8.2 15.9115 8.2Z" stroke="black" stroke-width="2"/>
<path d="M3.1114 10.6001H2.8666C2.48785 10.6001 2.12136 10.7344 1.83234 10.9791C1.54332 11.2239 1.3505 11.5633 1.2882 11.9369L1.0218 13.5369C0.983567 13.7661 0.995734 14.0009 1.05745 14.225C1.11917 14.4491 1.22896 14.657 1.37918 14.8343C1.5294 15.0116 1.71645 15.1541 1.92731 15.2518C2.13818 15.3495 2.36779 15.4001 2.6002 15.4001H5.5114" stroke="black" stroke-width="2" stroke-linecap="round" stroke-linejoin="round"/>
<path d="M15.9112 10.6001H16.156C16.5348 10.6001 16.9013 10.7344 17.1903 10.9791C17.4793 11.2239 17.6721 11.5633 17.7344 11.9369L18.0008 13.5369C18.0391 13.7661 18.0269 14.0009 17.9652 14.225C17.9035 14.4491 17.7937 14.657 17.6434 14.8343C17.4932 15.0116 17.3062 15.1541 17.0953 15.2518C16.8845 15.3495 16.6548 15.4001 16.4224 15.4001H13.5112" stroke="black" stroke-width="2" stroke-linecap="round" stroke-linejoin="round"/>
</svg>
