<svg width="14" height="16" viewBox="0 0 14 16" fill="none" xmlns="http://www.w3.org/2000/svg">
<path fill-rule="evenodd" clip-rule="evenodd" d="M7 5.25C6.17157 5.25 5.5 5.80964 5.5 6.5C5.5 7.19036 6.17157 7.75 7 7.75C7.82843 7.75 8.5 7.19036 8.5 6.5C8.5 5.80964 7.82843 5.25 7 5.25ZM4 6.5C4 5.11929 5.34315 4 7 4C8.65685 4 10 5.11929 10 6.5C10 7.88071 8.65685 9 7 9C5.34315 9 4 7.88071 4 6.5Z" fill="black"/>
<path fill-rule="evenodd" clip-rule="evenodd" d="M2.05025 1.91712C3.36301 0.689609 5.14348 0 7 0C8.85652 0 10.637 0.689609 11.9497 1.91712C13.2625 3.14463 14 4.80949 14 6.54545C14 7.28481 13.9161 7.9361 13.6974 8.55301C13.4776 9.17317 13.1344 9.72242 12.6625 10.273C12.6562 10.2803 12.6498 10.2874 12.6433 10.2945L7.58776 15.749C7.44003 15.9084 7.22557 16 7 16C6.77443 16 6.55997 15.9084 6.41224 15.749L1.35669 10.2945C1.35016 10.2874 1.34377 10.2803 1.33753 10.273C0.865618 9.72242 0.522427 9.17317 0.302586 8.55301C0.0838934 7.9361 0 7.28481 0 6.54545C0 4.80949 0.737498 3.14463 2.05025 1.91712ZM7 1.45455C5.55604 1.45455 4.17123 1.99091 3.1502 2.94564C2.12917 3.90037 1.55556 5.19526 1.55556 6.54545C1.55556 7.1821 1.628 7.669 1.77914 8.09535C1.92793 8.5151 2.16545 8.91122 2.54226 9.35272L7 14.1623L11.4577 9.35272C11.8345 8.91122 12.0721 8.5151 12.2209 8.09535C12.372 7.669 12.4444 7.1821 12.4444 6.54545C12.4444 5.19526 11.8708 3.90037 10.8498 2.94564C9.82877 1.99091 8.44396 1.45455 7 1.45455Z" fill="black"/>
</svg>
